<svg xmlns="http://www.w3.org/2000/svg" viewBox="0 0 760 410" width="760" height="410" role="img" aria-labelledby="title desc">
<title id="title">CWE family by exposure vector heatmap</title>
<desc id="desc">Sequential blue heatmap: median pre-event percentile of implicated files, memory/other/cert-auth/info-leak CWE families vs the control baseline, across eight exposure vectors.</desc>
<style>
  text { font-family: system-ui, -apple-system, "Segoe UI", sans-serif; }
  .tick { font-variant-numeric: tabular-nums; }
</style>
<rect x="0.5" y="0.5" width="759" height="409" rx="10" fill="#fcfcfb" stroke="rgba(11,11,11,0.10)" stroke-width="1"/>
<text x="150.0" y="28.0" font-size="15" fill="#0b0b0b" text-anchor="start" font-weight="600">CWE family × exposure vector</text>
<text x="150.0" y="44.0" font-size="11" fill="#898781" text-anchor="start" font-weight="normal">Median pre-event percentile per vector, implicated files ranked within their parent snapshot.</text>
<text x="184.0" y="100.0" font-size="10.5" fill="#52514e" text-anchor="start" font-weight="normal" transform="rotate(-38 184.0 100.0)">cognitive_load</text>
<text x="252.0" y="100.0" font-size="10.5" fill="#52514e" text-anchor="start" font-weight="normal" transform="rotate(-38 252.0 100.0)">safety_score</text>
<text x="320.0" y="100.0" font-size="10.5" fill="#52514e" text-anchor="start" font-weight="normal" transform="rotate(-38 320.0 100.0)">state_flux</text>
<text x="388.0" y="100.0" font-size="10.5" fill="#52514e" text-anchor="start" font-weight="normal" transform="rotate(-38 388.0 100.0)">api_exposure</text>
<text x="456.0" y="100.0" font-size="10.5" fill="#52514e" text-anchor="start" font-weight="normal" transform="rotate(-38 456.0 100.0)">verification</text>
<text x="524.0" y="100.0" font-size="10.5" fill="#52514e" text-anchor="start" font-weight="normal" transform="rotate(-38 524.0 100.0)">tech_debt</text>
<text x="592.0" y="100.0" font-size="10.5" fill="#52514e" text-anchor="start" font-weight="normal" transform="rotate(-38 592.0 100.0)">documentation</text>
<text x="660.0" y="100.0" font-size="10.5" fill="#52514e" text-anchor="start" font-weight="normal" transform="rotate(-38 660.0 100.0)">concurrency</text>
<text x="138.0" y="137.0" font-size="12.5" fill="#0b0b0b" text-anchor="end" font-weight="normal">memory (97)</text>
<rect x="151.0" y="111.0" width="66.0" height="44.0" rx="2" fill="#184e94"/>
<text x="184.0" y="137.0" font-size="12" fill="#ffffff" text-anchor="middle" font-weight="normal" class="tick">84</text>
<rect x="219.0" y="111.0" width="66.0" height="44.0" rx="2" fill="#1f60b1"/>
<text x="252.0" y="137.0" font-size="12" fill="#ffffff" text-anchor="middle" font-weight="normal" class="tick">73</text>
<rect x="287.0" y="111.0" width="66.0" height="44.0" rx="2" fill="#185097"/>
<text x="320.0" y="137.0" font-size="12" fill="#ffffff" text-anchor="middle" font-weight="normal" class="tick">82</text>
<rect x="355.0" y="111.0" width="66.0" height="44.0" rx="2" fill="#3c89e5"/>
<text x="388.0" y="137.0" font-size="12" fill="#0b0b0b" text-anchor="middle" font-weight="normal" class="tick">49</text>
<rect x="423.0" y="111.0" width="66.0" height="44.0" rx="2" fill="#195198"/>
<text x="456.0" y="137.0" font-size="12" fill="#ffffff" text-anchor="middle" font-weight="normal" class="tick">82</text>
<rect x="491.0" y="111.0" width="66.0" height="44.0" rx="2" fill="#1c5ba9"/>
<text x="524.0" y="137.0" font-size="12" fill="#ffffff" text-anchor="middle" font-weight="normal" class="tick">76</text>
<rect x="559.0" y="111.0" width="66.0" height="44.0" rx="2" fill="#3886e4"/>
<text x="592.0" y="137.0" font-size="12" fill="#0b0b0b" text-anchor="middle" font-weight="normal" class="tick">51</text>
<rect x="627.0" y="111.0" width="66.0" height="44.0" rx="2" fill="#cde2fb"/>
<text x="660.0" y="137.0" font-size="12" fill="#0b0b0b" text-anchor="middle" font-weight="normal" class="tick">0</text>
<text x="138.0" y="183.0" font-size="12.5" fill="#0b0b0b" text-anchor="end" font-weight="normal">other (94)</text>
<rect x="151.0" y="157.0" width="66.0" height="44.0" rx="2" fill="#174d91"/>
<text x="184.0" y="183.0" font-size="12" fill="#ffffff" text-anchor="middle" font-weight="normal" class="tick">85</text>
<rect x="219.0" y="157.0" width="66.0" height="44.0" rx="2" fill="#1c5dac"/>
<text x="252.0" y="183.0" font-size="12" fill="#ffffff" text-anchor="middle" font-weight="normal" class="tick">75</text>
<rect x="287.0" y="157.0" width="66.0" height="44.0" rx="2" fill="#195198"/>
<text x="320.0" y="183.0" font-size="12" fill="#ffffff" text-anchor="middle" font-weight="normal" class="tick">82</text>
<rect x="355.0" y="157.0" width="66.0" height="44.0" rx="2" fill="#3684e2"/>
<text x="388.0" y="183.0" font-size="12" fill="#0b0b0b" text-anchor="middle" font-weight="normal" class="tick">51</text>
<rect x="423.0" y="157.0" width="66.0" height="44.0" rx="2" fill="#195198"/>
<text x="456.0" y="183.0" font-size="12" fill="#ffffff" text-anchor="middle" font-weight="normal" class="tick">82</text>
<rect x="491.0" y="157.0" width="66.0" height="44.0" rx="2" fill="#1c5ba9"/>
<text x="524.0" y="183.0" font-size="12" fill="#ffffff" text-anchor="middle" font-weight="normal" class="tick">76</text>
<rect x="559.0" y="157.0" width="66.0" height="44.0" rx="2" fill="#3381df"/>
<text x="592.0" y="183.0" font-size="12" fill="#0b0b0b" text-anchor="middle" font-weight="normal" class="tick">53</text>
<rect x="627.0" y="157.0" width="66.0" height="44.0" rx="2" fill="#cde2fb"/>
<text x="660.0" y="183.0" font-size="12" fill="#0b0b0b" text-anchor="middle" font-weight="normal" class="tick">0</text>
<text x="138.0" y="229.0" font-size="12.5" fill="#0b0b0b" text-anchor="end" font-weight="normal">cert-auth (60)</text>
<rect x="151.0" y="203.0" width="66.0" height="44.0" rx="2" fill="#164c90"/>
<text x="184.0" y="229.0" font-size="12" fill="#ffffff" text-anchor="middle" font-weight="normal" class="tick">85</text>
<rect x="219.0" y="203.0" width="66.0" height="44.0" rx="2" fill="#2367ba"/>
<text x="252.0" y="229.0" font-size="12" fill="#ffffff" text-anchor="middle" font-weight="normal" class="tick">69</text>
<rect x="287.0" y="203.0" width="66.0" height="44.0" rx="2" fill="#1a559e"/>
<text x="320.0" y="229.0" font-size="12" fill="#ffffff" text-anchor="middle" font-weight="normal" class="tick">80</text>
<rect x="355.0" y="203.0" width="66.0" height="44.0" rx="2" fill="#3f8be5"/>
<text x="388.0" y="229.0" font-size="12" fill="#0b0b0b" text-anchor="middle" font-weight="normal" class="tick">48</text>
<rect x="423.0" y="203.0" width="66.0" height="44.0" rx="2" fill="#185097"/>
<text x="456.0" y="229.0" font-size="12" fill="#ffffff" text-anchor="middle" font-weight="normal" class="tick">82</text>
<rect x="491.0" y="203.0" width="66.0" height="44.0" rx="2" fill="#1b5aa8"/>
<text x="524.0" y="229.0" font-size="12" fill="#ffffff" text-anchor="middle" font-weight="normal" class="tick">76</text>
<rect x="559.0" y="203.0" width="66.0" height="44.0" rx="2" fill="#3280de"/>
<text x="592.0" y="229.0" font-size="12" fill="#0b0b0b" text-anchor="middle" font-weight="normal" class="tick">54</text>
<rect x="627.0" y="203.0" width="66.0" height="44.0" rx="2" fill="#cde2fb"/>
<text x="660.0" y="229.0" font-size="12" fill="#0b0b0b" text-anchor="middle" font-weight="normal" class="tick">0</text>
<text x="138.0" y="275.0" font-size="12.5" fill="#0b0b0b" text-anchor="end" font-weight="normal">info-leak (49)</text>
<rect x="151.0" y="249.0" width="66.0" height="44.0" rx="2" fill="#154a8d"/>
<text x="184.0" y="275.0" font-size="12" fill="#ffffff" text-anchor="middle" font-weight="normal" class="tick">87</text>
<rect x="219.0" y="249.0" width="66.0" height="44.0" rx="2" fill="#1a559f"/>
<text x="252.0" y="275.0" font-size="12" fill="#ffffff" text-anchor="middle" font-weight="normal" class="tick">80</text>
<rect x="287.0" y="249.0" width="66.0" height="44.0" rx="2" fill="#185097"/>
<text x="320.0" y="275.0" font-size="12" fill="#ffffff" text-anchor="middle" font-weight="normal" class="tick">83</text>
<rect x="355.0" y="249.0" width="66.0" height="44.0" rx="2" fill="#3d89e5"/>
<text x="388.0" y="275.0" font-size="12" fill="#0b0b0b" text-anchor="middle" font-weight="normal" class="tick">49</text>
<rect x="423.0" y="249.0" width="66.0" height="44.0" rx="2" fill="#195199"/>
<text x="456.0" y="275.0" font-size="12" fill="#ffffff" text-anchor="middle" font-weight="normal" class="tick">82</text>
<rect x="491.0" y="249.0" width="66.0" height="44.0" rx="2" fill="#1c5ba9"/>
<text x="524.0" y="275.0" font-size="12" fill="#ffffff" text-anchor="middle" font-weight="normal" class="tick">76</text>
<rect x="559.0" y="249.0" width="66.0" height="44.0" rx="2" fill="#3381df"/>
<text x="592.0" y="275.0" font-size="12" fill="#0b0b0b" text-anchor="middle" font-weight="normal" class="tick">54</text>
<rect x="627.0" y="249.0" width="66.0" height="44.0" rx="2" fill="#cde2fb"/>
<text x="660.0" y="275.0" font-size="12" fill="#0b0b0b" text-anchor="middle" font-weight="normal" class="tick">0</text>
<text x="138.0" y="321.0" font-size="12.5" fill="#0b0b0b" text-anchor="end" font-weight="normal">control-baseline (168)</text>
<rect x="151.0" y="295.0" width="66.0" height="44.0" rx="2" fill="#14498c"/>
<text x="184.0" y="321.0" font-size="12" fill="#ffffff" text-anchor="middle" font-weight="normal" class="tick">87</text>
<rect x="219.0" y="295.0" width="66.0" height="44.0" rx="2" fill="#1f61b2"/>
<text x="252.0" y="321.0" font-size="12" fill="#ffffff" text-anchor="middle" font-weight="normal" class="tick">72</text>
<rect x="287.0" y="295.0" width="66.0" height="44.0" rx="2" fill="#185097"/>
<text x="320.0" y="321.0" font-size="12" fill="#ffffff" text-anchor="middle" font-weight="normal" class="tick">83</text>
<rect x="355.0" y="295.0" width="66.0" height="44.0" rx="2" fill="#3987e5"/>
<text x="388.0" y="321.0" font-size="12" fill="#0b0b0b" text-anchor="middle" font-weight="normal" class="tick">50</text>
<rect x="423.0" y="295.0" width="66.0" height="44.0" rx="2" fill="#185096"/>
<text x="456.0" y="321.0" font-size="12" fill="#ffffff" text-anchor="middle" font-weight="normal" class="tick">83</text>
<rect x="491.0" y="295.0" width="66.0" height="44.0" rx="2" fill="#1b5aa7"/>
<text x="524.0" y="321.0" font-size="12" fill="#ffffff" text-anchor="middle" font-weight="normal" class="tick">77</text>
<rect x="559.0" y="295.0" width="66.0" height="44.0" rx="2" fill="#317fdd"/>
<text x="592.0" y="321.0" font-size="12" fill="#0b0b0b" text-anchor="middle" font-weight="normal" class="tick">54</text>
<rect x="627.0" y="295.0" width="66.0" height="44.0" rx="2" fill="#cde2fb"/>
<text x="660.0" y="321.0" font-size="12" fill="#0b0b0b" text-anchor="middle" font-weight="normal" class="tick">0</text>
<rect x="150.0" y="374.0" width="5.5" height="10.0" rx="0" fill="#cae0fa"/>
<rect x="155.0" y="374.0" width="5.5" height="10.0" rx="0" fill="#c3dbf9"/>
<rect x="160.0" y="374.0" width="5.5" height="10.0" rx="0" fill="#bcd7f7"/>
<rect x="165.0" y="374.0" width="5.5" height="10.0" rx="0" fill="#b6d2f6"/>
<rect x="170.0" y="374.0" width="5.5" height="10.0" rx="0" fill="#aecef5"/>
<rect x="175.0" y="374.0" width="5.5" height="10.0" rx="0" fill="#a7caf5"/>
<rect x="180.0" y="374.0" width="5.5" height="10.0" rx="0" fill="#9fc6f4"/>
<rect x="185.0" y="374.0" width="5.5" height="10.0" rx="0" fill="#98c1f3"/>
<rect x="190.0" y="374.0" width="5.5" height="10.0" rx="0" fill="#91bdf1"/>
<rect x="195.0" y="374.0" width="5.5" height="10.0" rx="0" fill="#8ab8f0"/>
<rect x="200.0" y="374.0" width="5.5" height="10.0" rx="0" fill="#82b4ef"/>
<rect x="205.0" y="374.0" width="5.5" height="10.0" rx="0" fill="#7bafee"/>
<rect x="210.0" y="374.0" width="5.5" height="10.0" rx="0" fill="#73abed"/>
<rect x="215.0" y="374.0" width="5.5" height="10.0" rx="0" fill="#6ca6ec"/>
<rect x="220.0" y="374.0" width="5.5" height="10.0" rx="0" fill="#65a2ea"/>
<rect x="225.0" y="374.0" width="5.5" height="10.0" rx="0" fill="#5d9de9"/>
<rect x="230.0" y="374.0" width="5.5" height="10.0" rx="0" fill="#5699e7"/>
<rect x="235.0" y="374.0" width="5.5" height="10.0" rx="0" fill="#4e94e6"/>
<rect x="240.0" y="374.0" width="5.5" height="10.0" rx="0" fill="#468fe6"/>
<rect x="245.0" y="374.0" width="5.5" height="10.0" rx="0" fill="#3d8ae5"/>
<rect x="250.0" y="374.0" width="5.5" height="10.0" rx="0" fill="#3785e3"/>
<rect x="255.0" y="374.0" width="5.5" height="10.0" rx="0" fill="#3280de"/>
<rect x="260.0" y="374.0" width="5.5" height="10.0" rx="0" fill="#2e7cda"/>
<rect x="265.0" y="374.0" width="5.5" height="10.0" rx="0" fill="#2a77d5"/>
<rect x="270.0" y="374.0" width="5.5" height="10.0" rx="0" fill="#2873ce"/>
<rect x="275.0" y="374.0" width="5.5" height="10.0" rx="0" fill="#276fc7"/>
<rect x="280.0" y="374.0" width="5.5" height="10.0" rx="0" fill="#256bc0"/>
<rect x="285.0" y="374.0" width="5.5" height="10.0" rx="0" fill="#2366ba"/>
<rect x="290.0" y="374.0" width="5.5" height="10.0" rx="0" fill="#2062b4"/>
<rect x="295.0" y="374.0" width="5.5" height="10.0" rx="0" fill="#1d5eae"/>
<rect x="300.0" y="374.0" width="5.5" height="10.0" rx="0" fill="#1b5aa8"/>
<rect x="305.0" y="374.0" width="5.5" height="10.0" rx="0" fill="#1a56a1"/>
<rect x="310.0" y="374.0" width="5.5" height="10.0" rx="0" fill="#19529a"/>
<rect x="315.0" y="374.0" width="5.5" height="10.0" rx="0" fill="#184e94"/>
<rect x="320.0" y="374.0" width="5.5" height="10.0" rx="0" fill="#154a8e"/>
<rect x="325.0" y="374.0" width="5.5" height="10.0" rx="0" fill="#134788"/>
<rect x="330.0" y="374.0" width="5.5" height="10.0" rx="0" fill="#104382"/>
<rect x="335.0" y="374.0" width="5.5" height="10.0" rx="0" fill="#0f3f7c"/>
<rect x="340.0" y="374.0" width="5.5" height="10.0" rx="0" fill="#0e3b75"/>
<rect x="345.0" y="374.0" width="5.5" height="10.0" rx="0" fill="#0d386e"/>
<text x="150.0" y="398.0" font-size="10.5" fill="#898781" text-anchor="start" font-weight="normal" class="tick">0</text>
<text x="350.0" y="398.0" font-size="10.5" fill="#898781" text-anchor="end" font-weight="normal" class="tick">100</text>
<text x="250.0" y="398.0" font-size="10.5" fill="#898781" text-anchor="middle" font-weight="normal">median pre-event percentile</text>
</svg>
